<?xml version="1.0" encoding="UTF-8"?>
<svg width="15px" height="12px" viewBox="0 0 15 12" version="1.1" xmlns="http://www.w3.org/2000/svg" xmlns:xlink="http://www.w3.org/1999/xlink">
    <!-- Generator: Sketch 54.1 (76490) - https://sketchapp.com -->
    <title>Path</title>
    <desc>Created with Sketch.</desc>
    <g id="Page-1" stroke="none" stroke-width="1" fill="none" fill-rule="evenodd">
        <g id="Главная" transform="translate(-1040.000000, -1221.000000)" fill="#9799A5" fill-rule="nonzero">
            <g id="Group-24" transform="translate(365.000000, 1212.000000)">
                <g id="Group-23">
                    <g id="Group-22" transform="translate(529.000000, 6.000000)">
                        <path d="M155.556721,14.7205927 C155.231461,15.0128829 154.60773,15.1335429 154.24419,14.7955927 C153.88608,14.4627425 153.89673,13.8172021 154.25349,13.4830318 L157.628612,9.9015995 L146.900031,9.9015995 C146.40299,9.9015995 146,9.49863923 146,9.00156891 C146,8.50449858 146.40299,8.10154732 146.900031,8.10154732 L157.628612,8.10154732 L154.25349,4.52011497 C153.94635,4.21246476 153.88959,3.54421433 154.24419,3.20755411 C154.59867,2.87092388 155.244811,2.97847396 155.556721,3.28258415 L160.356904,8.3827885 C160.697134,8.80362878 160.664554,9.20472904 160.356904,9.62034931 L155.556721,14.7205927 Z" id="Path"></path>
                    </g>
                </g>
            </g>
        </g>
    </g>
</svg>