<?xml version="1.0" encoding="UTF-8"?>
<svg width="28px" height="24px" viewBox="0 0 28 24" version="1.1" xmlns="http://www.w3.org/2000/svg" xmlns:xlink="http://www.w3.org/1999/xlink">
    <!-- Generator: Sketch 54.1 (76490) - https://sketchapp.com -->
    <title>Combined Shape</title>
    <desc>Created with Sketch.</desc>
    <g id="Page-1" stroke="none" stroke-width="1" fill="none" fill-rule="evenodd">
        <g id="Главная" transform="translate(-932.000000, -2689.000000)" fill="#6A81DF" fill-rule="nonzero">
            <g id="Group-24-Copy-3" transform="translate(365.000000, 2600.000000)">
                <g id="Group-14-Copy-7" transform="translate(471.000000, 56.000000)">
                    <g id="Combined-Shape-2" transform="translate(80.000000, 15.000000)">
                        <path d="M40.7484171,40.2184197 C41.3535609,40.2221975 41.7565408,40.5773048 41.7558669,41.1068749 C41.7558669,41.6371318 41.3508653,41.9987643 40.7504388,41.9991077 C38.1843059,42.000138 35.6181731,42.000138 33.0520402,41.9997946 C28.4571934,41.9994512 23.8623465,41.9991077 19.2674996,41.997734 C18.7489494,41.9973906 18.4079664,41.7789687 18.2846465,41.3761245 C18.1097748,40.8046559 18.5093853,40.2503588 19.1243003,40.2211672 C19.3537562,40.2105208 19.584223,40.21945 19.8399602,40.21945 C19.8699478,39.7626872 19.9016202,39.3323686 19.9262168,38.9013631 C20.0259509,37.1392203 20.1226526,35.3767341 20.2227237,33.6145914 C20.2870792,32.4840176 20.3531194,31.3534438 20.4228659,30.2228701 C20.4508319,29.7664507 20.3012307,29.5548974 19.8709587,29.4686963 C19.5774842,29.4096262 19.4174378,29.2200525 19.4288938,28.9446211 C19.4396758,28.6863612 19.6364486,28.4899189 19.9275645,28.4754948 C20.2233976,28.4607273 20.5202415,28.4665656 20.8167484,28.4665656 C21.7709617,28.4662222 22.725175,28.4672525 23.6793882,28.4682828 C23.7720467,28.4686262 23.865042,28.4658787 23.9570266,28.4751514 C24.2262414,28.5015955 24.4226772,28.692543 24.4388503,28.9356919 C24.4570451,29.2080324 24.2966618,29.4027576 24.0041981,29.4645751 C23.5675242,29.5566146 23.417923,29.7362288 23.4431935,30.1830321 C23.5624701,32.3033731 23.6884856,34.4230272 23.809447,36.5433681 C23.8741394,37.6742853 23.9398426,38.8052025 23.9907205,39.9364631 C24.0004918,40.1535113 24.0567607,40.2256318 24.2781301,40.2235712 C25.4082259,40.212238 26.5386586,40.2115511 27.6687544,40.2239146 C27.8975365,40.2263186 27.9406648,40.1411478 27.9521207,39.9316551 C28.1081238,37.0853017 28.2728873,34.2396352 28.4352923,31.3939686 C28.459215,30.9794478 28.487181,30.564927 28.5016694,30.1500628 C28.5158209,29.737946 28.3571223,29.5463116 27.9612181,29.4683529 C27.6502227,29.4072222 27.4824268,29.2094061 27.5039909,28.9298536 C27.5235334,28.6791492 27.7304144,28.4761817 28.0191717,28.4744645 C29.3436817,28.4665656 30.6685287,28.4655353 31.9930387,28.4727474 C32.2824699,28.4741211 32.4900248,28.6781189 32.5088934,28.9274496 C32.5301206,29.2087193 32.3629985,29.4085959 32.0543617,29.47007 C31.6493602,29.5507762 31.4862814,29.7551175 31.510541,30.1775372 C31.6486863,32.5805216 31.7908749,34.9828191 31.9286832,37.3858035 C31.9768656,38.2244612 32.0237002,39.0631189 32.0567203,39.9024635 C32.0658177,40.1332489 32.1183803,40.2287226 32.3734436,40.2249449 C33.4755734,40.2094905 34.5780402,40.2184197 35.6805069,40.2184197 C35.7724915,40.2184197 35.864476,40.2184197 35.9938609,40.2184197 C36.0356414,39.5514774 36.0777588,38.9226558 36.1138114,38.2934908 C36.261391,35.7023064 36.4076228,33.1107786 36.5535177,30.5192507 C36.5626151,30.359212 36.5727233,30.198143 36.5676692,30.0381044 C36.5578979,29.7283299 36.3837001,29.5301704 36.0871932,29.4752215 C35.7290262,29.4089394 35.5453941,29.2159313 35.5693168,28.9312273 C35.5925657,28.6554525 35.8183153,28.4706868 36.1694064,28.4696565 C37.4477557,28.4655353 38.726105,28.4655353 40.0044543,28.4703433 C40.3393723,28.4713736 40.5553507,28.6537353 40.5789365,28.9243587 C40.6045439,29.2200525 40.430683,29.4085959 40.0718422,29.4748781 C39.7493909,29.5342916 39.5620524,29.7667941 39.5815949,30.1181237 C39.6735795,31.7768938 39.7719659,33.4353205 39.8666459,35.0937473 C39.950207,36.5636305 40.0317464,38.0338572 40.1146335,39.5037405 C40.1274372,39.729031 40.1422626,39.9543215 40.1584357,40.2184197 C40.3663275,40.2184197 40.5573723,40.2173894 40.7484171,40.2184197 Z M43.5588313,24.9931078 C44.0180801,25.2427819 44.1097277,25.5360717 43.8758916,26.0182484 C43.7529086,26.2717002 43.6211651,26.5210309 43.5039101,26.7775736 C43.2838885,27.2590634 42.9149395,27.4754247 42.3984109,27.4750813 C39.2207325,27.4719904 36.043391,27.4737075 32.8657126,27.4737075 C31.9114993,27.4737075 30.957286,27.4737075 30.0030728,27.4737075 C25.8711811,27.474051 21.7396263,27.4726772 17.6077346,27.4754247 C17.091543,27.4757681 16.722594,27.2587199 16.5032462,26.7765433 C16.3829588,26.5114148 16.2468351,26.2534984 16.1201458,25.9914608 C15.8930484,25.521991 15.9816636,25.2352264 16.4392277,24.9927644 C18.6148474,23.840211 20.791141,22.6897183 22.9677716,21.5392256 C25.0786989,20.4234193 27.1919847,19.3124211 29.2995426,18.1897462 C29.7759754,17.935951 30.2214097,17.9373247 30.6988533,18.1904331 C34.942272,20.4405908 39.189734,22.6828497 43.4358483,24.9275126 C43.4769549,24.9491487 43.5180616,24.9707848 43.5588313,24.9931078 Z" id="Combined-Shape"></path>
                    </g>
                </g>
            </g>
        </g>
    </g>
</svg>