<?xml version="1.0" encoding="UTF-8"?>
<svg width="11px" height="21px" viewBox="0 0 11 21" version="1.1" xmlns="http://www.w3.org/2000/svg" xmlns:xlink="http://www.w3.org/1999/xlink">
    <!-- Generator: Sketch 54.1 (76490) - https://sketchapp.com -->
    <title>Path</title>
    <desc>Created with Sketch.</desc>
    <g id="Page-1" stroke="none" stroke-width="1" fill="none" fill-rule="evenodd">
        <g id="Главная" transform="translate(-1290.000000, -3432.000000)" fill="#FFFFFF">
            <g id="Group-33" transform="translate(0.000000, 2938.000000)">
                <g id="Group-40" transform="translate(0.000000, 429.000000)">
                    <g id="Group-3" transform="translate(50.000000, 50.000000)">
                        <g id="Group-38-Copy" transform="translate(1220.000000, 0.000000)">
                            <path d="M22.511,36 L22.511,26.375 L20,26.375 L20,22.8751 L22.511,22.8751 L22.511,19.8131 C22.511,18.4511 22.933,17.3096 23.778,16.3853 C24.623,15.4621 25.874,15 27.533,15 C27.951,15 28.37,15.0155 28.788,15.0488 C29.207,15.0809 29.516,15.113 29.719,15.1463 L30.044,15.195 L29.904,18.4998 L27.743,18.4998 C27.153,18.4998 26.762,18.6461 26.568,18.9376 C26.374,19.229 26.278,19.6668 26.278,20.2497 L26.278,22.8751 L30.044,22.8751 L29.789,26.375 L26.278,26.375 L26.278,36 L22.511,36 Z" id="Path"></path>
                        </g>
                    </g>
                </g>
            </g>
        </g>
    </g>
</svg>