<?xml version="1.0" encoding="UTF-8"?>
<svg width="18px" height="18px" viewBox="0 0 18 18" version="1.1" xmlns="http://www.w3.org/2000/svg" xmlns:xlink="http://www.w3.org/1999/xlink">
    <!-- Generator: Sketch 54.1 (76490) - https://sketchapp.com -->
    <title>Combined Shape</title>
    <desc>Created with Sketch.</desc>
    <g id="Page-1" stroke="none" stroke-width="1" fill="none" fill-rule="evenodd">
        <g id="Главная" transform="translate(-1356.000000, -3433.000000)" fill="#FFFFFF" fill-rule="nonzero">
            <g id="Group-33" transform="translate(0.000000, 2938.000000)">
                <g id="Group-40" transform="translate(0.000000, 429.000000)">
                    <g id="Group-3" transform="translate(50.000000, 50.000000)">
                        <g id="Group-38" transform="translate(1290.000000, 0.000000)">
                            <path d="M33.5277207,19.1019868 C33.7494867,19.672344 33.9030801,20.326156 33.9449692,21.2859695 C33.9934292,22.2457829 34,22.5517843 34,25.0000409 C34,27.4482157 33.986037,27.7542989 33.9449692,28.7141123 C33.9030801,29.6669712 33.7494867,30.327656 33.5277207,30.8980132 C33.2977413,31.489234 32.9913758,31.9899636 32.4911704,32.490775 C31.9901437,32.9915045 31.489117,33.2975877 30.8985626,33.5270888 C30.3277207,33.7496352 29.673922,33.9026359 28.7145791,33.9443634 C27.7544148,33.9930454 27.4480493,34 25.0004107,34 C22.5519507,34 22.2455852,33.9860908 21.2862423,33.9443634 C20.3334702,33.9026359 19.6722793,33.7496352 19.1022587,33.5270888 C18.510883,33.2975877 18.0098563,32.9915045 17.5096509,32.490775 C17.0086242,31.9899636 16.7022587,31.489234 16.4731006,30.8980132 C16.2505133,30.327656 16.0977413,29.6739258 16.0558522,28.7141123 C16.0065708,27.7542989 16,27.4482157 16,25.0000409 C16,22.5517843 16.013963,22.2457829 16.0558522,21.2859695 C16.0977413,20.3331106 16.2505133,19.672344 16.4731006,19.1019868 C16.7022587,18.5108478 17.0086242,18.0100364 17.5096509,17.5093069 C18.0098563,17.0084955 18.510883,16.7024941 19.1022587,16.4729931 C19.6722793,16.2503648 20.326078,16.0973641 21.2862423,16.0556366 C22.2455852,16.0069546 22.5519507,16 25.0004107,16 C27.4480493,16 27.7544148,16.0139092 28.7145791,16.0556366 C29.6673511,16.0973641 30.3277207,16.2503648 30.8985626,16.4729931 C31.489117,16.7024941 31.9901437,17.0084955 32.4911704,17.5093069 C32.9913758,18.0100364 33.2977413,18.5108478 33.5277207,19.1019868 Z M20.3679671,24.9973409 C20.3679671,27.5499161 22.4402464,29.6225437 24.9930185,29.6225437 C27.5457906,29.6225437 29.6188912,27.5499161 29.6188912,24.9973409 C29.6188912,22.4448475 27.5457906,20.3722199 24.9930185,20.3722199 C22.4402464,20.3722199 20.3679671,22.4448475 20.3679671,24.9973409 Z M21.988501,25.0003682 C21.988501,23.345097 23.3305955,21.9957454 24.9930185,21.9957454 C26.6554415,21.9957454 27.9983573,23.3381424 27.9983573,25.0003682 C27.9983573,26.6557212 26.6488706,28.0050728 24.9930185,28.0050728 C23.3379877,28.0050728 21.988501,26.6626757 21.988501,25.0003682 Z M29.7995893,21.269033 C30.3950719,21.269033 30.8772074,20.7863854 30.8772074,20.1909918 C30.8772074,19.5955982 30.3950719,19.1129505 29.7995893,19.1129505 C29.2041068,19.1129505 28.7211499,19.5955982 28.7211499,20.1909918 C28.7211499,20.7863854 29.2041068,21.269033 29.7995893,21.269033 Z" id="Combined-Shape"></path>
                        </g>
                    </g>
                </g>
            </g>
        </g>
    </g>
</svg>