<?xml version="1.0" encoding="UTF-8"?>
<svg width="14px" height="14px" viewBox="0 0 14 14" version="1.1" xmlns="http://www.w3.org/2000/svg" xmlns:xlink="http://www.w3.org/1999/xlink">
    <!-- Generator: Sketch 54.1 (76490) - https://sketchapp.com -->
    <title>Shape</title>
    <desc>Created with Sketch.</desc>
    <g id="Page-1" stroke="none" stroke-width="1" fill="none" fill-rule="evenodd">
        <g id="Главная" transform="translate(-68.000000, -48.000000)" fill="#FFFFFF" fill-rule="nonzero">
            <g id="Group-42" transform="translate(0.000000, -2.000000)">
                <g id="Group-27" transform="translate(50.000000, 32.000000)">
                    <g id="Group-4">
                        <g id="Group-3">
                            <path d="M23.6139885,28.1743681 C26.1331611,28.1743681 28.1753541,26.132373 28.1753541,23.6134445 C28.1753541,21.0945159 26.1331611,19.0525208 23.6139885,19.0525208 C21.0948158,19.0525208 19.0526228,21.0945159 19.0526228,23.6134445 C19.0526228,26.132373 21.0948158,28.1743681 23.6139885,28.1743681 Z M23.6139885,29.226889 C20.5134682,29.226889 18,26.7136643 18,23.6134445 C18,20.5132247 20.5134682,18 23.6139885,18 C26.7145087,18 29.2279769,20.5132247 29.2279769,23.6134445 C29.2279769,26.7136643 26.7145087,29.226889 23.6139885,29.226889 Z M28.3221446,29.3134705 C28.0472919,29.0386445 28.0447305,28.5956247 28.320691,28.3196909 C28.5947408,28.0456676 29.0341838,28.0407884 29.3145669,28.3211444 L31.7927156,30.7990529 C32.0675682,31.0738789 32.0701296,31.5168988 31.7941691,31.7928325 C31.5201193,32.0668558 31.0806763,32.071735 30.8002932,31.7913791 L28.3221446,29.3134705 Z" id="Shape"></path>
                        </g>
                    </g>
                </g>
            </g>
        </g>
    </g>
</svg>