<?xml version="1.0" encoding="UTF-8"?>
<svg width="22px" height="12px" viewBox="0 0 22 12" version="1.1" xmlns="http://www.w3.org/2000/svg" xmlns:xlink="http://www.w3.org/1999/xlink">
    <!-- Generator: Sketch 54.1 (76490) - https://sketchapp.com -->
    <title>Group 56</title>
    <desc>Created with Sketch.</desc>
    <g id="Page-1" stroke="none" stroke-width="1" fill="none" fill-rule="evenodd">
        <g id="Главная" transform="translate(-1215.000000, -3437.000000)" fill="#FFFFFF" fill-rule="nonzero">
            <g id="Group-33" transform="translate(0.000000, 2938.000000)">
                <g id="Group-40" transform="translate(0.000000, 429.000000)">
                    <g id="Group-3" transform="translate(50.000000, 50.000000)">
                        <g id="Group-38-Copy-2" transform="translate(1150.000000, 0.000000)">
                            <g id="Group-56" transform="translate(15.000000, 20.000000)">
                                <path d="M21.3084667,10.83728 C21.2824741,10.7824 21.2583556,10.73688 21.2358667,10.7004 C20.8642296,10.0432 20.1539556,9.23648 19.1055333,8.28016 L19.0833704,8.25824 L19.0722889,8.24752 L19.0610444,8.23648 L19.0498,8.23648 C18.5740296,7.79112 18.2727111,7.49168 18.1464963,7.3384 C17.9156593,7.04632 17.8639185,6.75072 17.9900519,6.4512 C18.0791926,6.22496 18.4140815,5.74704 18.9939037,5.0168 C19.2988889,4.62984 19.5404815,4.31976 19.7188444,4.08608 C21.0052741,2.40688 21.5630148,1.33384 21.3919037,0.86656 L21.3254963,0.75736 C21.2808444,0.6916 21.1655481,0.63144 20.9799333,0.57664 C20.7938296,0.52192 20.5559037,0.5128 20.2658296,0.54928 L17.0537481,0.57112 C17.0016815,0.55296 16.9273704,0.55472 16.8305704,0.57664 C16.7338519,0.59856 16.6855333,0.6096 16.6855333,0.6096 L16.629637,0.63696 L16.5852296,0.66992 C16.5480741,0.69176 16.5071704,0.73008 16.4625185,0.7848 C16.4181111,0.83936 16.3809556,0.90344 16.3512148,0.9764 C16.0014963,1.85984 15.6039481,2.68112 15.1576741,3.44032 C14.8825111,3.89304 14.629837,4.28536 14.3990815,4.61752 C14.1686519,4.94968 13.9752963,5.19432 13.8192593,5.35112 C13.6629778,5.50816 13.5220148,5.63392 13.3953111,5.72888 C13.2688519,5.82392 13.1723778,5.86408 13.1054815,5.84944 C13.0385037,5.83472 12.975437,5.82016 12.9157111,5.8056 C12.8116593,5.73984 12.7279778,5.6504 12.6649111,5.53728 C12.6015185,5.42416 12.5588222,5.28176 12.5365778,5.11016 C12.5143333,4.93848 12.5012148,4.7908 12.4974667,4.66664 C12.493963,4.54264 12.4955926,4.36728 12.5031704,4.14096 C12.5109111,3.91456 12.5143333,3.76136 12.5143333,3.68104 C12.5143333,3.4036 12.5198741,3.10248 12.5309556,2.7776 C12.5422,2.45272 12.5512444,2.19528 12.5589037,2.00568 C12.5664815,1.81584 12.5699852,1.61504 12.5699852,1.40328 C12.5699852,1.1916 12.5568667,1.02552 12.5309556,0.90504 C12.5052889,0.78464 12.4659333,0.66784 12.4141111,0.55456 C12.361963,0.44144 12.2856148,0.35392 12.1854741,0.29176 C12.0850889,0.22968 11.9603407,0.18048 11.8118,0.14384 C11.4176741,0.05632 10.9158296,0.00896 10.3059407,0.00152 C8.92303704,-0.01304 8.0344,0.07464 7.64027407,0.26448 C7.48415556,0.34472 7.34286667,0.45424 7.21648889,0.59288 C7.08261481,0.75352 7.06395556,0.8412 7.16059259,0.85568 C7.60678519,0.92128 7.92268889,1.07824 8.10862963,1.32648 L8.17560741,1.458 C8.22767407,1.55288 8.27974074,1.72088 8.33180741,1.96176 C8.38379259,2.20264 8.41736296,2.46904 8.43211111,2.76096 C8.46926667,3.294 8.46926667,3.75024 8.43211111,4.12984 C8.39487407,4.50952 8.35975556,4.80512 8.32618519,5.01688 C8.29261481,5.22864 8.2425037,5.40016 8.17560741,5.53152 C8.10862963,5.66296 8.06405926,5.74328 8.04165185,5.7724 C8.01940741,5.80152 8.00074815,5.81992 7.986,5.82712 C7.88936296,5.86352 7.78881481,5.882 7.68484444,5.882 C7.58062963,5.882 7.45425185,5.83088 7.30562963,5.72864 C7.15692593,5.62632 7.00268148,5.48592 6.84281481,5.30696 C6.68286667,5.12808 6.50254815,4.878 6.3016963,4.55688 C6.10108889,4.23568 5.89282222,3.85608 5.67722222,3.418 L5.49877778,3.1004 C5.38722963,2.896 5.23485926,2.59848 5.04158519,2.20792 C4.84806667,1.81728 4.67711852,1.43944 4.5284963,1.0744 C4.46901481,0.92112 4.37979259,0.8044 4.26082963,0.72408 L4.20501481,0.69112 C4.16785926,0.662 4.1082963,0.63104 4.02657037,0.598 C3.94476296,0.56504 3.85937037,0.54144 3.77006667,0.52688 L0.713940741,0.54872 C0.401703704,0.54872 0.18977037,0.61816 0.0782222222,0.75688 L0.0335703704,0.82248 C0.0112444444,0.85904 0,0.91744 0,0.99784 C0,1.07808 0.0223259259,1.17672 0.0669777778,1.29344 C0.513088889,2.32288 0.99822963,3.31568 1.5224,4.27208 C2.04665185,5.2284 2.50213333,5.9988 2.88868148,6.58248 C3.27531111,7.16656 3.66943704,7.71784 4.07097778,8.23608 C4.47251852,8.7544 4.73831111,9.08664 4.86835556,9.23256 C4.99856296,9.3788 5.10082222,9.48808 5.17521481,9.56104 L5.45404444,9.82384 C5.63257037,9.99912 5.89461481,10.20896 6.24034074,10.45352 C6.58622963,10.69816 6.96911111,10.93904 7.38922963,11.17648 C7.80942963,11.4136 8.29823704,11.60704 8.85597778,11.75664 C9.41363704,11.9064 9.95638519,11.96656 10.4843852,11.93752 L11.7670667,11.93752 C12.027237,11.91552 12.2242593,11.8352 12.3582148,11.69656 L12.4026222,11.64168 C12.4324444,11.59808 12.4603926,11.5304 12.4862222,11.43928 C12.5122963,11.34808 12.5252519,11.24752 12.5252519,11.13816 C12.5176741,10.82432 12.5419556,10.54144 12.5976074,10.2896 C12.6531778,10.03784 12.7165704,9.848 12.7874593,9.72016 C12.8582667,9.59248 12.9382,9.48464 13.0270963,9.39728 C13.1163185,9.30976 13.1797926,9.25672 13.2171111,9.2384 C13.2541037,9.22008 13.2836815,9.2076 13.3060074,9.20008 C13.4844519,9.14176 13.6944296,9.19824 13.9363481,9.37 C14.1780222,9.54152 14.4047852,9.75336 14.6168,10.00512 C14.8287333,10.25712 15.083363,10.53984 15.3806889,10.85376 C15.6782593,11.16768 15.9384296,11.40112 16.1614444,11.55464 L16.3844593,11.68608 C16.5333259,11.77376 16.7266815,11.85408 16.9646889,11.92704 C17.2022074,12 17.4103926,12.01824 17.5890815,11.98176 L20.4442741,11.93808 C20.7266889,11.93808 20.9464444,11.89216 21.1023185,11.80104 C21.2585185,11.70976 21.3513259,11.60928 21.3812296,11.49992 C21.4110519,11.39048 21.4126815,11.26624 21.3868519,11.12736 C21.3604519,10.98888 21.3343778,10.89208 21.3084667,10.83728 Z" id="Path"></path>
                            </g>
                        </g>
                    </g>
                </g>
            </g>
        </g>
    </g>
</svg>