<?xml version="1.0" encoding="UTF-8"?>
<svg width="18px" height="20px" viewBox="0 0 18 20" version="1.1" xmlns="http://www.w3.org/2000/svg" xmlns:xlink="http://www.w3.org/1999/xlink">
    <!-- Generator: Sketch 54.1 (76490) - https://sketchapp.com -->
    <title>Combined Shape</title>
    <desc>Created with Sketch.</desc>
    <g id="Page-1" stroke="none" stroke-width="1" fill="none" fill-rule="evenodd">
        <g id="-Контакты" transform="translate(-825.000000, -1355.000000)" fill="#FFFFFF" fill-rule="nonzero">
            <g id="Group-14" transform="translate(375.000000, 1303.000000)">
                <g id="Group-2" transform="translate(435.000000, 37.000000)">
                    <g id="Group-13">
                        <path d="M22.1988417,25.8363885 C22.3205935,25.8691656 22.4208906,25.937904 22.4968813,26.0405659 C22.571775,26.1426333 22.6097704,26.2682646 22.6097704,26.4140631 C22.6097704,26.6153959 22.5451871,26.7727428 22.4178194,26.8817308 C22.2894426,26.9919501 22.0666478,27.047824 21.7555337,27.047824 L20.8178477,27.047824 L20.8178477,25.8052673 L21.7462762,25.8052673 C21.9657803,25.8052673 22.1181126,25.8157542 22.1988417,25.8363885 Z M25.6623393,25.8781241 C25.8390659,25.9435933 25.9920563,26.0769943 26.1170109,26.2744634 C26.2413074,26.4739705 26.3043989,26.7617039 26.3043989,27.1298091 C26.3043989,27.3962714 26.2720195,27.6269846 26.2081821,27.8154952 C26.1459681,27.9990808 26.0562008,28.1492949 25.9416883,28.261637 C25.8600379,28.3396312 25.7506587,28.4004726 25.6164466,28.4424629 C25.4797336,28.4857694 25.2886601,28.5077198 25.0484472,28.5077198 L24.2766068,28.5077198 L24.2766068,25.8052248 L25.034539,25.8052248 C25.3206885,25.8052248 25.5318127,25.8297651 25.6623393,25.8781241 Z M16.9926486,29.0977071 C16.9926486,30.0324056 17.7784849,30.7928166 18.7443384,30.7928591 L30.4791462,30.7928591 L30.4791462,35 L16.8827868,35 C15.8445843,35 15,34.1822291 15,33.1770514 L15,16.8234157 C15,15.8179832 15.8446282,15 16.8827868,15 L26.1155191,15 C26.1042434,15.0224175 26.0973551,15.0472975 26.0973551,15.0739182 L26.0973551,19.0714472 C26.0973551,19.1652355 26.1759343,19.2412766 26.2728531,19.2412766 L30.2814915,19.2412766 C30.3630543,19.2412766 30.4310159,19.1871859 30.4506716,19.1142018 L30.4791462,19.1417566 L30.4791462,23.5177079 L18.7442945,23.5177079 C17.778441,23.5177079 16.9926486,24.278119 16.9926486,25.212775 L16.9926486,29.0977071 Z M26.4483073,15.2402237 L30.2310359,18.9016178 L26.4483073,18.9016178 L26.4483073,15.2402237 Z M31.5993063,23.8574091 C32.3716293,23.8574091 33,24.4654408 33,25.2128174 L33,29.0977495 C33,29.8451687 32.3716732,30.4532003 31.5993063,30.4532003 L30.6546881,30.4532003 L18.7443384,30.4532003 C17.9720154,30.4532003 17.3436885,29.8451687 17.3436885,29.0977495 L17.3436885,25.2128174 C17.3436885,24.4654408 17.9720154,23.8574091 18.7443384,23.8574091 L30.6546881,23.8574091 L31.5993063,23.8574091 Z M22.853932,27.1895466 C23.0573342,26.9749671 23.1604393,26.7090568 23.1604832,26.3990757 C23.1604832,26.2174856 23.1217859,26.0494819 23.0454442,25.8996924 C22.9682251,25.7477376 22.8656465,25.628305 22.7405164,25.544749 C22.616176,25.4613628 22.4592808,25.403833 22.2744375,25.3738157 C22.140708,25.3508038 21.949108,25.3391281 21.7050341,25.3391281 L20.2825787,25.3391281 L20.2825787,28.9743685 L20.8178477,28.9743685 L20.8178477,27.5139632 L21.7488209,27.5139632 C22.2764557,27.5139632 22.6482483,27.4048053 22.853932,27.1895466 Z M26.7553411,27.8682273 C26.8215916,27.6572992 26.8551995,27.4112164 26.8551995,27.1367721 C26.8551995,26.817875 26.805709,26.528231 26.7080005,26.2759494 C26.6101165,26.0246868 26.4601534,25.8153296 26.262411,25.653737 C26.1091573,25.5267046 25.9278679,25.4408983 25.708276,25.3915204 C25.557918,25.3567479 25.3341141,25.3391281 25.0428313,25.3391281 L23.7408991,25.3391281 L23.7408991,28.9743685 L25.103071,28.9743685 C25.333456,28.9743685 25.5300577,28.9541163 25.7042834,28.9124657 C25.8807466,28.8703055 26.0322892,28.8085726 26.1546991,28.7290924 C26.2788201,28.6490179 26.3944294,28.5375673 26.4982365,28.3978402 C26.6030527,28.2572639 26.6895732,28.0790704 26.7553411,27.8682273 Z M30.061066,25.8052673 L30.061066,25.3391705 L27.5128345,25.3391705 L27.5128345,28.974411 L28.0481035,28.974411 L28.0481035,27.3425204 L29.7906674,27.3425204 L29.7906674,26.8763812 L28.0481035,26.8763812 L28.0481035,25.8052673 L30.061066,25.8052673 Z" id="Combined-Shape"></path>
                    </g>
                </g>
            </g>
        </g>
    </g>
</svg>