<svg width="18" height="20" viewBox="0 0 18 20" xmlns="http://www.w3.org/2000/svg">
    <title>
        Combined Shape
    </title>
    <path d="M7.199 10.836a.537.537 0 0 1 .298.205.617.617 0 0 1 .113.373c0 .201-.065.359-.192.468-.129.11-.351.166-.662.166h-.938v-1.243h.928c.22 0 .372.01.453.031zm3.463.042a.93.93 0 0 1 .455.396c.124.2.187.488.187.856 0 .266-.032.497-.096.685a1.118 1.118 0 0 1-.266.447.818.818 0 0 1-.326.18 1.965 1.965 0 0 1-.568.066h-.771v-2.703h.758c.286 0 .497.025.627.073zm-8.67 3.22c0 .934.786 1.695 1.752 1.695H15.48V20H1.883C.845 20 0 19.182 0 18.177V1.823C0 .818.845 0 1.883 0h9.233a.164.164 0 0 0-.019.074V4.07c0 .094.079.17.176.17h4.008c.082 0 .15-.054.17-.127l.028.028v4.376H3.744c-.966 0-1.751.76-1.751 1.695v3.885zM11.449.24l3.783 3.662h-3.783V.24zM16.6 8.857c.773 0 1.401.608 1.401 1.356v3.885c0 .747-.628 1.355-1.4 1.355H3.744c-.773 0-1.401-.608-1.401-1.355v-3.885c0-.748.628-1.356 1.4-1.356H16.6zM7.854 12.19c.203-.215.306-.48.306-.79 0-.183-.038-.35-.115-.5a.916.916 0 0 0-.304-.355 1.168 1.168 0 0 0-.467-.171 3.586 3.586 0 0 0-.569-.035H5.283v3.635h.535v-1.46h.93c.528 0 .9-.11 1.106-.324zm3.901.678c.067-.21.1-.457.1-.731 0-.32-.05-.609-.147-.861a1.488 1.488 0 0 0-.446-.622 1.288 1.288 0 0 0-.554-.262 3.18 3.18 0 0 0-.665-.053H8.74v3.635h1.362c.23 0 .427-.02.601-.062a1.44 1.44 0 0 0 .45-.183c.125-.08.24-.191.344-.331.105-.14.192-.319.257-.53zm3.306-2.063v-.466h-2.548v3.635h.535v-1.631h1.743v-.467h-1.743v-1.07h2.013z" fill="#FFF" fill-rule="nonzero"/>
</svg>
