<?xml version="1.0" encoding="UTF-8"?><!DOCTYPE svg PUBLIC "-//W3C//DTD SVG 1.1//EN" "http://www.w3.org/Graphics/SVG/1.1/DTD/svg11.dtd"><svg xmlns="http://www.w3.org/2000/svg"><symbol id="icon-arrow-bottom" viewBox="0 0 13 8">
    <title>
        Path
    </title>
    <path d="M.59 2.266C.296 1.941.175 1.317.513.954c.333-.358.978-.348 1.313.01L6.31 5.21l.898-.872L10.79.963c.307-.307.975-.364 1.312-.01.337.355.23 1.001-.075 1.313l-5.1 4.8c-.421.34-.822.308-1.238 0l-5.1-4.8z" fill-rule="nonzero"/>
</symbol><symbol id="icon-arrow-next" viewBox="0 0 15 12">
    <title>
        Path
    </title>
    <path d="M9.557 11.72c-.326.293-.95.414-1.313.076-.358-.333-.347-.979.01-1.313l3.375-3.581H.9a.9.9 0 0 1 0-1.8h10.729L8.253 1.52C7.946 1.212 7.89.544 8.244.208c.355-.337 1-.23 1.313.075l4.8 5.1c.34.42.308.822 0 1.237l-4.8 5.1z" fill-rule="nonzero"/>
</symbol><symbol id="icon-arrow-prev" viewBox="0 0 15 12">
    <title>
        Path Copy
    </title>
    <path d="M5.043 11.72c.326.293.95.414 1.313.076.358-.333.347-.979-.01-1.313L2.972 6.902H13.7a.9.9 0 0 0 0-1.8H2.971L6.347 1.52c.307-.308.363-.976.009-1.312-.355-.337-1-.23-1.313.075l-4.8 5.1c-.34.42-.308.822 0 1.237l4.8 5.1z" fill-rule="nonzero"/>
</symbol><symbol id="icon-arrow" viewBox="0 0 8 13">
    <title>
        Path
    </title>
    <path d="M7.5 6.474a.805.805 0 0 0-.24-.55L2.008.754A.914.914 0 0 0 .77.732a.798.798 0 0 0-.026 1.171L5.413 6.5l-4.67 4.597a.798.798 0 0 0 .026 1.171.914.914 0 0 0 1.24-.02L7.26 7.074a.802.802 0 0 0 .24-.6z" fill-rule="nonzero"/>
</symbol><symbol id="icon-combined" viewBox="0 0 28 24">
    <title>
        Combined Shape
    </title>
    <path d="M24.748 22.218c.606.004 1.009.36 1.008.889 0 .53-.405.892-1.006.892a61475.16 61475.16 0 0 1-21.483-.001c-.518 0-.859-.219-.982-.622-.175-.571.224-1.126.84-1.155.229-.01.46-.002.715-.002.03-.456.062-.887.086-1.318l.297-5.286c.064-1.131.13-2.262.2-3.392.028-.457-.122-.668-.552-.754-.294-.06-.454-.249-.442-.524.01-.259.207-.455.499-.47.295-.014.592-.008.889-.008l2.862.001c.093 0 .186-.002.278.007.27.027.466.218.482.46.018.273-.142.468-.435.53-.436.092-.586.271-.56.718.118 2.12.244 4.24.365 6.36.065 1.131.13 2.262.182 3.393.01.218.066.29.287.288 1.13-.012 2.26-.012 3.39 0 .23.002.273-.083.284-.292.156-2.847.32-5.692.483-8.538.024-.415.052-.83.067-1.244.014-.412-.145-.604-.54-.682-.312-.06-.48-.259-.458-.538a.5.5 0 0 1 .515-.456 348.35 348.35 0 0 1 3.974-.001.5.5 0 0 1 .516.454c.021.282-.146.482-.455.543-.405.08-.568.285-.543.708.138 2.403.28 4.805.418 7.208.048.838.095 1.677.128 2.516.009.231.061.327.316.323 1.103-.016 2.205-.007 3.308-.007h.313c.042-.667.084-1.295.12-1.925l.44-7.774c.009-.16.019-.32.014-.48-.01-.31-.184-.509-.48-.564-.359-.066-.543-.26-.519-.544.024-.276.25-.46.6-.461 1.279-.004 2.557-.004 3.835 0 .335.001.551.184.575.454.026.296-.148.485-.507.55-.323.06-.51.293-.49.644.092 1.659.19 3.317.285 4.976l.248 4.41c.012.225.027.45.043.714h.59zm2.81-15.225c.46.25.552.543.318 1.025-.123.254-.255.503-.372.76-.22.481-.59.697-1.106.697-3.177-.003-6.355-.001-9.532-.001h-2.863c-4.132 0-8.263-.001-12.395.001-.516 0-.885-.216-1.105-.698C.383 8.51.247 8.253.12 7.99c-.227-.469-.138-.756.32-.998a7925.5 7925.5 0 0 1 6.528-3.454C9.078 2.423 11.192 1.312 13.3.19c.476-.253.921-.252 1.399.001 4.243 2.25 8.49 4.493 12.737 6.738l.123.065z" fill-rule="nonzero"/>
</symbol><symbol id="icon-facebook" viewBox="0 0 10 19">
    <title>
        facebook
    </title>
    <path d="M9.766.157v2.946H8.014c-.64 0-1.071.134-1.295.402-.223.268-.335.67-.335 1.205v2.11h3.27l-.435 3.303H6.384v8.471H2.97v-8.47H.123V6.82H2.97V4.387c0-1.384.387-2.457 1.161-3.22C4.904.404 5.934.023 7.222.023c1.093 0 1.941.045 2.544.134z" fill-rule="evenodd"/>
</symbol><symbol id="icon-fb" viewBox="0 0 11 21">
    <title>
        Path
    </title>
    <path d="M2.511 21v-9.625H0v-3.5h2.511V4.813c0-1.362.422-2.503 1.267-3.428C4.623.462 5.874 0 7.533 0c.418 0 .837.015 1.255.049.419.032.728.064.931.097l.325.049-.14 3.305H7.743c-.59 0-.981.146-1.175.438-.194.291-.29.729-.29 1.312v2.625h3.766l-.255 3.5H6.278V21H2.511z" fill-rule="evenodd"/>
</symbol><symbol id="icon-inst" viewBox="0 0 18 18">
    <title>
        Combined Shape
    </title>
    <path d="M17.528 3.102c.221.57.375 1.224.417 2.184.048.96.055 1.266.055 3.714s-.014 2.754-.055 3.714c-.042.953-.196 1.614-.417 2.184a4.413 4.413 0 0 1-1.037 1.593c-.5.5-1.002.807-1.592 1.036-.571.223-1.225.376-2.184.417-.96.049-1.267.056-3.715.056s-2.754-.014-3.714-.056c-.953-.041-1.614-.194-2.184-.417a4.392 4.392 0 0 1-1.592-1.036 4.391 4.391 0 0 1-1.037-1.593c-.222-.57-.375-1.224-.417-2.184C.006 11.754 0 11.448 0 9s.014-2.754.056-3.714c.042-.953.195-1.614.417-2.184A4.391 4.391 0 0 1 1.51 1.509c.5-.5 1-.807 1.592-1.036C3.672.25 4.326.097 5.286.056 6.246.007 6.552 0 9 0s2.754.014 3.715.056c.952.041 1.613.194 2.184.417.59.23 1.091.535 1.592 1.036.5.501.807 1.002 1.037 1.593zM4.368 8.997a4.627 4.627 0 0 0 4.625 4.626 4.628 4.628 0 0 0 4.626-4.626 4.628 4.628 0 0 0-4.626-4.625 4.627 4.627 0 0 0-4.625 4.625zM5.988 9a3.005 3.005 0 0 1 6.01 0 3.01 3.01 0 0 1-3.005 3.005A3.006 3.006 0 0 1 5.989 9zM13.8 5.27a1.078 1.078 0 1 0 0-2.155 1.078 1.078 0 0 0 0 2.155z" fill-rule="nonzero"/>
</symbol><symbol id="icon-search" viewBox="0 0 14 14">
    <title>
        Shape
    </title>
    <path d="M5.614 10.174a4.561 4.561 0 1 0 0-9.122 4.561 4.561 0 0 0 0 9.122zm0 1.053a5.614 5.614 0 1 1 0-11.228 5.614 5.614 0 0 1 0 11.228zm4.708.086a.7.7 0 1 1 .993-.992l2.478 2.478a.7.7 0 1 1-.993.992l-2.478-2.478z" fill-rule="nonzero"/>
</symbol><symbol id="icon-vk" viewBox="0 0 22 12">
    <title>
        Group 56
    </title>
    <path d="M21.308 10.837c-.026-.055-.05-.1-.072-.137-.372-.657-1.082-1.464-2.13-2.42l-.023-.022-.01-.01-.012-.012h-.011c-.476-.445-.777-.744-.904-.898-.23-.292-.282-.587-.156-.887.09-.226.424-.704 1.004-1.434.305-.387.546-.697.725-.93 1.286-1.68 1.844-2.753 1.673-3.22l-.067-.11c-.044-.065-.16-.126-.345-.18-.186-.055-.424-.064-.714-.028l-3.212.022a.424.424 0 0 0-.223.006l-.145.033-.056.027-.045.033a.495.495 0 0 0-.122.115.75.75 0 0 0-.112.191c-.35.884-.747 1.705-1.193 2.464-.275.453-.528.845-.759 1.178a5.67 5.67 0 0 1-.58.733 4.006 4.006 0 0 1-.424.378c-.126.095-.223.135-.29.12a8.558 8.558 0 0 1-.19-.043.734.734 0 0 1-.25-.269 1.183 1.183 0 0 1-.128-.427 4.608 4.608 0 0 1-.04-.443c-.003-.124-.001-.3.006-.526.008-.226.011-.38.011-.46 0-.277.006-.579.017-.903.011-.325.02-.583.028-.772.007-.19.011-.391.011-.603 0-.211-.013-.377-.039-.498a1.686 1.686 0 0 0-.117-.35.594.594 0 0 0-.229-.263 1.303 1.303 0 0 0-.373-.148c-.394-.088-.896-.135-1.506-.142C8.923-.013 8.034.075 7.64.264a1.5 1.5 0 0 0-.424.329c-.133.16-.152.248-.055.263.446.065.762.222.948.47l.067.132c.052.095.104.263.156.504.052.24.085.507.1.799.037.533.037.99 0 1.369-.037.38-.072.675-.106.887a1.751 1.751 0 0 1-.15.515 2.138 2.138 0 0 1-.134.24.19.19 0 0 1-.056.055.848.848 0 0 1-.301.055c-.104 0-.23-.051-.38-.153a2.655 2.655 0 0 1-.462-.422 5.635 5.635 0 0 1-.541-.75c-.2-.321-.41-.7-.625-1.139L5.5 3.1a26.979 26.979 0 0 1-.457-.892c-.194-.39-.365-.769-.514-1.134a.724.724 0 0 0-.267-.35L4.205.691a.772.772 0 0 0-.178-.093A1.2 1.2 0 0 0 3.77.527L.714.549C.402.549.19.619.078.757L.034.822A.349.349 0 0 0 0 .998c0 .08.022.179.067.295.446 1.03.931 2.023 1.455 2.98.525.955.98 1.726 1.367 2.31.386.584.78 1.135 1.182 1.653.402.518.667.85.797.997.13.146.233.255.307.328l.279.263c.179.175.44.385.786.63.346.244.73.485 1.15.722.42.238.908.431 1.466.58.558.15 1.1.21 1.628.182h1.283c.26-.022.457-.103.591-.241l.045-.055a.721.721 0 0 0 .083-.203c.026-.09.04-.191.04-.3a3.545 3.545 0 0 1 .072-.85c.055-.251.119-.441.19-.569a1.403 1.403 0 0 1 .43-.482.746.746 0 0 1 .088-.038c.178-.058.388-.002.63.17.242.172.469.383.68.635.213.252.467.535.765.849.297.314.557.547.78.7l.223.132c.15.088.343.168.58.241.238.073.446.091.625.055l2.855-.044c.283 0 .502-.046.658-.137.157-.091.25-.192.28-.301a.833.833 0 0 0 .005-.373 1.356 1.356 0 0 0-.079-.29z" fill-rule="nonzero"/>
</symbol></svg>